<svg xmlns="http://www.w3.org/2000/svg" width="512" height="512" fill="none"><g clip-path="url(#a)"><rect width="512" height="512" fill="#fffcee" rx="96"></rect><path fill="#292130" d="m101.583 176.7-12-3.6v-3.6h28.8q12.48 0 20.4 5.76 7.92 5.52 12 14.64l42.48 96.72 39.12-106.32-18-7.2v-3.6h44.4v3.6l-19.2 7.2-58.8 159.6h-7.2zm164.909 157.2 14.4-3.6V176.7l-14.4-3.6v-3.6h64.8q36.48 0 53.52 11.76 17.28 11.52 17.28 30.24 0 12.96-7.44 20.88t-18.96 11.76q-12.24 4.32-26.4 4.56v1.2q17.52.72 30.48 5.28 13.2 4.32 21.84 13.44 8.88 9.12 8.88 23.28 0 21.36-17.52 33.6-17.52 12-56.88 12h-69.6zm64.8-87.6q7.92 0 14.64-4.32 6.96-4.56 11.04-12.48 4.32-8.16 4.32-18 0-10.56-4.32-18.72-4.08-8.16-11.04-12.72-6.72-4.56-14.64-4.56h-10.8v70.8zm4.8 85.2q14.88 0 24.24-10.56t9.36-29.04-9.36-29.04-24.24-10.56h-15.6v79.2zM164.391 435.75l3-.75v-32l-3-.75v-.75h14q8.3 0 11.9 2.75 3.6 2.7 3.6 8t-3.6 8.05q-3.6 2.7-11.9 2.7h-2.75v12l3 .75v.75h-14.25zm14-14q3.15 0 5.05-2.4 1.95-2.4 1.95-7.1 0-4.65-1.95-7.05-1.9-2.45-5.05-2.45h-2.75v19zm32.013 15.5q-6.4 0-9.95-3.5-3.55-3.55-3.55-9.75 0-4.05 1.55-7.05t4.3-4.6q2.8-1.6 6.4-1.6t6.3 1.35q2.751 1.35 4.2 3.65 1.5 2.25 1.5 5 0 1.25-.25 2.15l-.25.85q-2.15.45-4.65.75-5.25.75-10.6.75 0 5.8 1.6 8.3 1.6 2.45 4.4 2.45 1.95 0 3.6-.9 1.7-.95 2.65-2.45 1-1.55 1-3.15h1.25q0 2-1.2 3.8t-3.35 2.9q-2.15 1.05-4.95 1.05m-5-13.25q3.2 0 5.2-.25a12 12 0 0 0 1.8-.25q.05-.25.25-1.1.25-1.25.25-2.65 0-4.15-1.1-6.05-1.1-1.95-2.65-1.95-3.75 0-3.75 12.25m19.729 11.75 3-.75v-22l-3-.75v-.75h6.5q4.5 0 4.5 4.5v19l3 .75v.75h-14zm6.5-27.25q-1.5 0-2.5-1t-1-2.5 1-2.5 2.5-1 2.5 1 1 2.5-1 2.5-2.5 1m10.742 27.25 3-.75v-22l-3-.75v-.75h4.5q2.95 0 4.65 1.9.65.75 1.1 1.85a9.6 9.6 0 0 1 1.65-2.25q2.25-2.25 5.6-2.25 2.8 0 5 1.2 2.25 1.15 3.5 3.05t1.25 4v16l3 .75v.75h-6.5q-4.5 0-4.5-4.5v-13q0-3.15-1.15-4.8-1.1-1.7-2.6-1.7-1.9 0-3.4 2a8.2 8.2 0 0 0-1.1 2V435l3 .75v.75h-14zm46.502 1.5q-3.3 0-5.75-1.2-2.4-1.2-3.7-3.3t-1.3-4.75v-15.25h-3.5v-1.25h3.5V409q0-4.5 4.5-4.5h3.5v7h7v1.25h-7V428q0 4.6.95 6.3t2.8 1.7q1.8 0 3.15-1.75t1.35-4.75h1.25q0 3.7-1.85 5.75-1.85 2-4.9 2m9.76-1.5 3-.75v-22l-3-.75v-.75h4.5q2.949 0 4.65 1.9.65.75 1.1 1.85.75-1.1 1.85-2 2.5-2 5.6-2 2.65 0 3.95 1.25 1.35 1.2 1.35 3.5 0 1.7-1.05 2.75-1 1-2.7 1-.7 0-1.4-.1l-.6-.15v-7q-2.55 0-4.65 2-1 1-1.6 2V435l3 .75v.75h-14zm38.994 1.5q-6.4 0-9.95-3.5-3.55-3.55-3.55-9.75 0-4.05 1.55-7.05t4.3-4.6q2.8-1.6 6.4-1.6t6.3 1.35q2.75 1.35 4.2 3.65 1.5 2.25 1.5 5 0 1.25-.25 2.15l-.25.85q-2.15.45-4.65.75-5.25.75-10.6.75 0 5.8 1.6 8.3 1.6 2.45 4.4 2.45 1.95 0 3.6-.9 1.7-.95 2.65-2.45 1-1.55 1-3.15h1.25q0 2-1.2 3.8t-3.35 2.9q-2.15 1.05-4.95 1.05m-5-13.25q3.2 0 5.2-.25a12 12 0 0 0 1.8-.25q.05-.25.25-1.1.25-1.25.25-2.65 0-4.15-1.1-6.05-1.1-1.95-2.65-1.95-3.75 0-3.75 12.25"></path></g><defs><clipPath id="a"><path fill="#fff" d="M0 0h512v512H0z"></path></clipPath></defs></svg>